<svg width="38" height="38" viewBox="0 0 38 38" fill="none" xmlns="http://www.w3.org/2000/svg">
<path opacity="0.1" fill-rule="evenodd" clip-rule="evenodd" d="M19 36.5C28.665 36.5 36.5 28.665 36.5 19C36.5 9.33502 28.665 1.5 19 1.5C9.33502 1.5 1.5 9.33502 1.5 19C1.5 28.665 9.33502 36.5 19 36.5Z" fill="#FF0000" stroke="white" stroke-width="1.5"/>
<path d="M19.5 12.1265C21.8855 12.1265 22.2108 12.1265 23.1867 12.1265C24.0542 12.1265 24.488 12.3434 24.8133 12.4518C25.247 12.6687 25.5723 12.7771 25.8976 13.1024C26.2229 13.4277 26.4398 13.753 26.5482 14.1867C26.6566 14.512 26.7651 14.9458 26.8735 15.8133C26.8735 16.7892 26.8735 17.006 26.8735 19.5C26.8735 21.994 26.8735 22.2108 26.8735 23.1867C26.8735 24.0542 26.6566 24.488 26.5482 24.8133C26.3313 25.247 26.2229 25.5723 25.8976 25.8976C25.5723 26.2229 25.247 26.4398 24.8133 26.5482C24.488 26.6566 24.0542 26.7651 23.1867 26.8735C22.2108 26.8735 21.994 26.8735 19.5 26.8735C17.006 26.8735 16.7892 26.8735 15.8133 26.8735C14.9458 26.8735 14.512 26.6566 14.1867 26.5482C13.753 26.3313 13.4277 26.2229 13.1024 25.8976C12.7771 25.5723 12.5602 25.247 12.4518 24.8133C12.3434 24.488 12.2349 24.0542 12.1265 23.1867C12.1265 22.2108 12.1265 21.994 12.1265 19.5C12.1265 17.006 12.1265 16.7892 12.1265 15.8133C12.1265 14.9458 12.3434 14.512 12.4518 14.1867C12.6687 13.753 12.7771 13.4277 13.1024 13.1024C13.4277 12.7771 13.753 12.5602 14.1867 12.4518C14.512 12.3434 14.9458 12.2349 15.8133 12.1265C16.7892 12.1265 17.1145 12.1265 19.5 12.1265ZM19.5 10.5C17.006 10.5 16.7892 10.5 15.8133 10.5C14.8374 10.5 14.1867 10.7169 13.6446 10.9337C13.1024 11.1506 12.5602 11.4759 12.0181 12.0181C11.4759 12.5602 11.259 12.994 10.9337 13.6446C10.7169 14.1867 10.6084 14.8374 10.5 15.8133C10.5 16.7892 10.5 17.1145 10.5 19.5C10.5 21.994 10.5 22.2108 10.5 23.1867C10.5 24.1627 10.7169 24.8133 10.9337 25.3554C11.1506 25.8976 11.4759 26.4398 12.0181 26.9819C12.5602 27.5241 12.994 27.741 13.6446 28.0663C14.1867 28.2831 14.8374 28.3916 15.8133 28.5C16.7892 28.5 17.1145 28.5 19.5 28.5C21.8855 28.5 22.2108 28.5 23.1867 28.5C24.1627 28.5 24.8133 28.2831 25.3554 28.0663C25.8976 27.8494 26.4398 27.5241 26.9819 26.9819C27.5241 26.4398 27.741 26.006 28.0663 25.3554C28.2831 24.8133 28.3916 24.1627 28.5 23.1867C28.5 22.2108 28.5 21.8855 28.5 19.5C28.5 17.1145 28.5 16.7892 28.5 15.8133C28.5 14.8374 28.2831 14.1867 28.0663 13.6446C27.8494 13.1024 27.5241 12.5602 26.9819 12.0181C26.4398 11.4759 26.006 11.259 25.3554 10.9337C24.8133 10.7169 24.1627 10.6084 23.1867 10.5C22.2108 10.5 21.994 10.5 19.5 10.5Z" fill="white"/>
<path d="M19.5 14.8373C16.8976 14.8373 14.8373 16.8976 14.8373 19.5C14.8373 22.1024 16.8976 24.1627 19.5 24.1627C22.1024 24.1627 24.1627 22.1024 24.1627 19.5C24.1627 16.8976 22.1024 14.8373 19.5 14.8373ZM19.5 22.5361C17.8735 22.5361 16.4639 21.2349 16.4639 19.5C16.4639 17.8735 17.7651 16.4639 19.5 16.4639C21.1265 16.4639 22.5361 17.7651 22.5361 19.5C22.5361 21.1265 21.1265 22.5361 19.5 22.5361Z" fill="white"/>
<path d="M24.2711 15.8133C24.8699 15.8133 25.3554 15.3278 25.3554 14.7289C25.3554 14.1301 24.8699 13.6446 24.2711 13.6446C23.6722 13.6446 23.1867 14.1301 23.1867 14.7289C23.1867 15.3278 23.6722 15.8133 24.2711 15.8133Z" fill="white"/>
</svg>
