<svg width="38" height="38" viewBox="0 0 38 38" fill="none" xmlns="http://www.w3.org/2000/svg">
<path opacity="0.1" fill-rule="evenodd" clip-rule="evenodd" d="M19 36.5C28.665 36.5 36.5 28.665 36.5 19C36.5 9.33502 28.665 1.5 19 1.5C9.33502 1.5 1.5 9.33502 1.5 19C1.5 28.665 9.33502 36.5 19 36.5Z" fill="#FF00C7" stroke="white" stroke-width="1.5"/>
<path d="M26.4997 14.9043C25.3249 14.9043 24.1983 14.4402 23.3676 13.6143C22.537 12.7883 22.0703 11.6681 22.0703 10.5H18.9057V22.8214C18.9051 23.3832 18.7268 23.9305 18.3958 24.3858C18.0649 24.8412 17.5983 25.1814 17.062 25.3583C16.5258 25.5352 15.9472 25.5397 15.4081 25.3714C14.8691 25.203 14.3971 24.8703 14.0589 24.4202C13.7207 23.9702 13.5336 23.4258 13.524 22.8641C13.5144 22.3024 13.6828 21.752 14.0054 21.2908C14.328 20.8296 14.7884 20.4811 15.3213 20.2946C15.8543 20.1081 16.4327 20.0932 16.9747 20.2518V17.1931C15.8229 17.0386 14.6511 17.2373 13.6159 17.7625C12.5806 18.2876 11.7311 19.1143 11.1808 20.1322C10.6305 21.1501 10.4056 22.3106 10.5361 23.4589C10.6667 24.6072 11.1464 25.6886 11.9114 26.5586C12.6763 27.4287 13.6899 28.046 14.817 28.3281C15.944 28.6103 17.1308 28.5438 18.2189 28.1377C19.307 27.7315 20.2445 27.005 20.9064 26.055C21.5682 25.1051 21.9229 23.977 21.9229 22.8214L22.0153 16.5933C23.3155 17.5424 24.887 18.0531 26.5 18.0507L26.4997 14.9043Z" fill="white"/>
</svg>
