<svg width="27" height="31" viewBox="0 0 27 31" fill="none" xmlns="http://www.w3.org/2000/svg">
<path d="M2 21.2964C0.899977 21.2964 0 20.3146 0 19.1146V11.4782C0 10.2782 0.899977 9.29639 2 9.29639C3.10002 9.29639 4 10.2782 4 11.4782V19.1146C4 20.3146 3.10002 21.2964 2 21.2964Z" fill="white"/>
<path d="M24.2778 21.2964C23.1778 21.2964 22.2778 20.3146 22.2778 19.1146V11.4782C22.2778 10.2782 23.1778 9.29639 24.2778 9.29639C25.3779 9.29639 26.2778 10.2782 26.2778 11.4782V19.1146C26.2778 20.3146 25.3778 21.2964 24.2778 21.2964Z" fill="white"/>
<path d="M19.1074 23.9464V29.3723C19.1074 30.2947 18.4021 31.0001 17.4797 31.0001C16.5572 31.0001 15.8519 30.2947 15.8519 29.3723V23.9464H10.4259V29.3723C10.4259 30.2947 9.66632 31.0001 8.79816 31.0001C7.92999 31.0001 7.17038 30.2947 7.17038 29.3723V23.9464H5V9.29639H21.2778V23.9464H19.1074Z" fill="white"/>
<path d="M20.9409 7.99951H4.94092C5.15424 5.84953 7.39427 1.99951 12.9942 1.99951C18.3276 1.99951 20.7276 5.84953 20.9409 7.99951Z" fill="white"/>
<path d="M11.3409 5.49951C11.3409 4.9495 10.861 4.49951 10.2743 4.49951C9.68759 4.49951 9.2076 4.9495 9.2076 5.49951C9.2076 6.04953 9.68759 6.49951 10.2743 6.49951C10.861 6.49951 11.3409 6.04953 11.3409 5.49951Z" fill="#1B171F"/>
<path d="M16.6742 5.49951C16.6742 4.9495 16.1942 4.49951 15.6076 4.49951C15.0209 4.49951 14.5409 4.9495 14.5409 5.49951C14.5409 6.04953 15.0209 6.49951 15.6076 6.49951C16.1942 6.49951 16.6742 6.04953 16.6742 5.49951Z" fill="#1B171F"/>
<path d="M8.49308 3.99951C8.28548 3.99951 8.12973 3.86563 8.02596 3.59793L7.03979 0.920842C6.93596 0.586206 7.03979 0.184627 7.29931 0.0508184C7.55883 -0.083067 7.87027 0.0508184 7.97404 0.385455L8.96021 3.06255C9.06404 3.39718 8.96021 3.79876 8.70069 3.93257C8.64883 3.93257 8.59692 3.99951 8.49308 3.99951Z" fill="white"/>
<path d="M16.9679 3.29951C16.9159 3.29951 16.8122 3.29951 16.7602 3.24428C16.5007 3.13383 16.3969 2.80259 16.5007 2.52651L17.4869 0.317915C17.5907 0.0418397 17.9021 -0.0686157 18.1616 0.0418397C18.4211 0.152295 18.525 0.483534 18.4211 0.759609L17.435 2.96821C17.3831 3.18906 17.1755 3.29951 16.9679 3.29951Z" fill="white"/>
</svg>
