<svg width="37" height="38" viewBox="0 0 37 38" fill="none" xmlns="http://www.w3.org/2000/svg">
<path opacity="0.1" fill-rule="evenodd" clip-rule="evenodd" d="M18.5 36.5C28.165 36.5 36 28.665 36 19C36 9.33502 28.165 1.5 18.5 1.5C8.83502 1.5 1 9.33502 1 19C1 28.665 8.83502 36.5 18.5 36.5Z" stroke="white" stroke-width="1.5"/>
<path d="M19 12.1265C21.3855 12.1265 21.7108 12.1265 22.6867 12.1265C23.5542 12.1265 23.988 12.3434 24.3133 12.4518C24.747 12.6687 25.0723 12.7771 25.3976 13.1024C25.7229 13.4277 25.9398 13.753 26.0482 14.1867C26.1566 14.512 26.2651 14.9458 26.3735 15.8133C26.3735 16.7892 26.3735 17.006 26.3735 19.5C26.3735 21.994 26.3735 22.2108 26.3735 23.1867C26.3735 24.0542 26.1566 24.488 26.0482 24.8133C25.8313 25.247 25.7229 25.5723 25.3976 25.8976C25.0723 26.2229 24.747 26.4398 24.3133 26.5482C23.988 26.6566 23.5542 26.7651 22.6867 26.8735C21.7108 26.8735 21.494 26.8735 19 26.8735C16.506 26.8735 16.2892 26.8735 15.3133 26.8735C14.4458 26.8735 14.012 26.6566 13.6867 26.5482C13.253 26.3313 12.9277 26.2229 12.6024 25.8976C12.2771 25.5723 12.0602 25.247 11.9518 24.8133C11.8434 24.488 11.7349 24.0542 11.6265 23.1867C11.6265 22.2108 11.6265 21.994 11.6265 19.5C11.6265 17.006 11.6265 16.7892 11.6265 15.8133C11.6265 14.9458 11.8434 14.512 11.9518 14.1867C12.1687 13.753 12.2771 13.4277 12.6024 13.1024C12.9277 12.7771 13.253 12.5602 13.6867 12.4518C14.012 12.3434 14.4458 12.2349 15.3133 12.1265C16.2892 12.1265 16.6145 12.1265 19 12.1265ZM19 10.5C16.506 10.5 16.2892 10.5 15.3133 10.5C14.3374 10.5 13.6867 10.7169 13.1446 10.9337C12.6024 11.1506 12.0602 11.4759 11.5181 12.0181C10.9759 12.5602 10.759 12.994 10.4337 13.6446C10.2169 14.1867 10.1084 14.8374 10 15.8133C10 16.7892 10 17.1145 10 19.5C10 21.994 10 22.2108 10 23.1867C10 24.1627 10.2169 24.8133 10.4337 25.3554C10.6506 25.8976 10.9759 26.4398 11.5181 26.9819C12.0602 27.5241 12.494 27.741 13.1446 28.0663C13.6867 28.2831 14.3374 28.3916 15.3133 28.5C16.2892 28.5 16.6145 28.5 19 28.5C21.3855 28.5 21.7108 28.5 22.6867 28.5C23.6627 28.5 24.3133 28.2831 24.8554 28.0663C25.3976 27.8494 25.9398 27.5241 26.4819 26.9819C27.0241 26.4398 27.241 26.006 27.5663 25.3554C27.7831 24.8133 27.8916 24.1627 28 23.1867C28 22.2108 28 21.8855 28 19.5C28 17.1145 28 16.7892 28 15.8133C28 14.8374 27.7831 14.1867 27.5663 13.6446C27.3494 13.1024 27.0241 12.5602 26.4819 12.0181C25.9398 11.4759 25.506 11.259 24.8554 10.9337C24.3133 10.7169 23.6627 10.6084 22.6867 10.5C21.7108 10.5 21.494 10.5 19 10.5Z" fill="white"/>
<path d="M19 14.8373C16.3976 14.8373 14.3373 16.8976 14.3373 19.5C14.3373 22.1024 16.3976 24.1627 19 24.1627C21.6024 24.1627 23.6627 22.1024 23.6627 19.5C23.6627 16.8976 21.6024 14.8373 19 14.8373ZM19 22.5361C17.3735 22.5361 15.9639 21.2349 15.9639 19.5C15.9639 17.8735 17.2651 16.4639 19 16.4639C20.6265 16.4639 22.0361 17.7651 22.0361 19.5C22.0361 21.1265 20.6265 22.5361 19 22.5361Z" fill="white"/>
<path d="M23.7711 15.8133C24.3699 15.8133 24.8554 15.3278 24.8554 14.7289C24.8554 14.1301 24.3699 13.6446 23.7711 13.6446C23.1722 13.6446 22.6867 14.1301 22.6867 14.7289C22.6867 15.3278 23.1722 15.8133 23.7711 15.8133Z" fill="white"/>
</svg>
