<svg width="529" height="590" viewBox="0 0 529 590" fill="none" xmlns="http://www.w3.org/2000/svg">
<rect width="490" height="590" rx="20" fill="#393942"/>
<path d="M51.794 75.57C49.59 75.57 47.652 75.1267 45.98 74.24C44.308 73.3407 43.0033 72.0803 42.066 70.459C41.1287 68.8377 40.66 66.9313 40.66 64.74V47.678L45.904 47.64V64.702C45.904 65.6013 46.056 66.4183 46.36 67.153C46.664 67.8877 47.082 68.521 47.614 69.053C48.1587 69.585 48.7857 69.9967 49.495 70.288C50.217 70.5667 50.9833 70.706 51.794 70.706C52.63 70.706 53.4027 70.5603 54.112 70.269C54.834 69.9777 55.461 69.566 55.993 69.034C56.525 68.502 56.9367 67.8687 57.228 67.134C57.532 66.3993 57.684 65.5887 57.684 64.702V47.64H62.928V64.74C62.928 66.9313 62.4593 68.8377 61.522 70.459C60.5847 72.0803 59.28 73.3407 57.608 74.24C55.936 75.1267 53.998 75.57 51.794 75.57ZM81.8363 75V65.31C81.8363 64.8413 81.8109 64.246 81.7603 63.524C81.7096 62.7893 81.5513 62.0547 81.2853 61.32C81.0193 60.5853 80.5823 59.971 79.9743 59.477C79.3789 58.983 78.5303 58.736 77.4283 58.736C76.9849 58.736 76.5099 58.8057 76.0033 58.945C75.4966 59.0843 75.0216 59.3567 74.5783 59.762C74.1349 60.1547 73.7676 60.7373 73.4763 61.51C73.1976 62.2827 73.0583 63.3087 73.0583 64.588L70.0943 63.182C70.0943 61.5607 70.4236 60.0407 71.0823 58.622C71.7409 57.2033 72.7289 56.057 74.0463 55.183C75.3763 54.309 77.0483 53.872 79.0623 53.872C80.6709 53.872 81.9819 54.1443 82.9953 54.689C84.0086 55.2337 84.7939 55.924 85.3513 56.76C85.9213 57.596 86.3266 58.47 86.5673 59.382C86.8079 60.2813 86.9536 61.1047 87.0043 61.852C87.0549 62.5993 87.0803 63.144 87.0803 63.486V75H81.8363ZM67.8143 75V54.48H72.4123V61.282H73.0583V75H67.8143ZM92.0105 51.63V47.07H97.1785V51.63H92.0105ZM92.0105 75V54.48H97.1785V75H92.0105ZM114.807 75C113.388 75.266 111.995 75.38 110.627 75.342C109.271 75.3167 108.055 75.0823 106.979 74.639C105.915 74.183 105.104 73.4547 104.547 72.454C104.04 71.5167 103.774 70.5667 103.749 69.604C103.723 68.6287 103.711 67.5267 103.711 66.298V48.78H108.879V65.994C108.879 66.792 108.885 67.514 108.898 68.16C108.923 68.7933 109.056 69.3 109.297 69.68C109.753 70.402 110.481 70.7947 111.482 70.858C112.482 70.9213 113.591 70.8707 114.807 70.706V75ZM100.215 58.47V54.48H114.807V58.47H100.215ZM127.387 75.57C125.284 75.57 123.429 75.1203 121.82 74.221C120.224 73.309 118.97 72.0613 118.058 70.478C117.159 68.882 116.709 67.058 116.709 65.006C116.709 62.764 117.152 60.8133 118.039 59.154C118.926 57.4947 120.148 56.209 121.706 55.297C123.264 54.3723 125.056 53.91 127.083 53.91C129.236 53.91 131.067 54.4167 132.574 55.43C134.081 56.4433 135.196 57.8683 135.918 59.705C136.64 61.5417 136.893 63.7013 136.678 66.184H131.567V64.284C131.567 62.194 131.231 60.693 130.56 59.781C129.901 58.8563 128.818 58.394 127.311 58.394C125.55 58.394 124.252 58.9323 123.416 60.009C122.593 61.073 122.181 62.65 122.181 64.74C122.181 66.6527 122.593 68.1347 123.416 69.186C124.252 70.2247 125.474 70.744 127.083 70.744C128.096 70.744 128.964 70.5223 129.686 70.079C130.408 69.6357 130.959 68.996 131.339 68.16L136.507 69.642C135.734 71.5167 134.512 72.9733 132.84 74.012C131.181 75.0507 129.363 75.57 127.387 75.57ZM120.585 66.184V62.346H134.189V66.184H120.585ZM159.216 75.57C157.493 75.57 155.853 75.266 154.295 74.658C152.737 74.0373 151.356 73.1253 150.153 71.922C148.962 70.7187 148.018 69.2303 147.322 67.457C146.638 65.6837 146.296 63.638 146.296 61.32C146.296 58.2927 146.872 55.7213 148.025 53.606C149.19 51.478 150.748 49.8567 152.699 48.742C154.662 47.6273 156.834 47.07 159.216 47.07C162.737 47.07 165.505 47.887 167.519 49.521C169.533 51.155 170.882 53.4667 171.566 56.456L166.284 57.216C165.79 55.62 164.979 54.347 163.852 53.397C162.737 52.4343 161.306 51.9467 159.558 51.934C157.822 51.9087 156.378 52.2823 155.226 53.055C154.073 53.8277 153.205 54.9233 152.623 56.342C152.053 57.7607 151.768 59.42 151.768 61.32C151.768 63.22 152.053 64.8667 152.623 66.26C153.205 67.6533 154.073 68.7363 155.226 69.509C156.378 70.2817 157.822 70.6807 159.558 70.706C160.736 70.7313 161.8 70.5287 162.75 70.098C163.712 69.6673 164.523 68.9897 165.182 68.065C165.84 67.1403 166.309 65.956 166.588 64.512H162.256V60.522H172.098C172.123 60.6867 172.142 60.978 172.155 61.396C172.167 61.814 172.174 62.0547 172.174 62.118C172.174 64.74 171.642 67.0643 170.578 69.091C169.514 71.1177 168.013 72.7073 166.075 73.86C164.137 75 161.85 75.57 159.216 75.57ZM181.302 75.57C179.832 75.57 178.585 75.2913 177.559 74.734C176.545 74.164 175.773 73.4103 175.241 72.473C174.721 71.523 174.462 70.478 174.462 69.338C174.462 68.388 174.607 67.5203 174.899 66.735C175.19 65.9497 175.659 65.2593 176.305 64.664C176.963 64.056 177.844 63.5493 178.946 63.144C179.706 62.8653 180.611 62.6183 181.663 62.403C182.714 62.1877 183.905 61.985 185.235 61.795C186.565 61.5923 188.028 61.3707 189.624 61.13L187.762 62.156C187.762 60.94 187.47 60.047 186.888 59.477C186.305 58.907 185.33 58.622 183.962 58.622C183.202 58.622 182.41 58.8057 181.587 59.173C180.763 59.5403 180.187 60.1927 179.858 61.13L175.184 59.648C175.703 57.9507 176.678 56.57 178.11 55.506C179.541 54.442 181.492 53.91 183.962 53.91C185.773 53.91 187.382 54.1887 188.788 54.746C190.194 55.3033 191.258 56.266 191.98 57.634C192.385 58.394 192.626 59.154 192.702 59.914C192.778 60.674 192.816 61.5227 192.816 62.46V75H188.294V70.782L188.94 71.656C187.939 73.0367 186.856 74.0373 185.691 74.658C184.538 75.266 183.075 75.57 181.302 75.57ZM182.404 71.504C183.354 71.504 184.152 71.3393 184.798 71.01C185.456 70.668 185.976 70.2817 186.356 69.851C186.748 69.4203 187.014 69.0593 187.154 68.768C187.42 68.2107 187.572 67.5647 187.61 66.83C187.66 66.0827 187.686 65.462 187.686 64.968L189.206 65.348C187.673 65.6013 186.432 65.8167 185.482 65.994C184.532 66.1587 183.765 66.3107 183.183 66.45C182.6 66.5893 182.087 66.7413 181.644 66.906C181.137 67.1087 180.725 67.3303 180.409 67.571C180.105 67.799 179.877 68.0523 179.725 68.331C179.585 68.6097 179.516 68.92 179.516 69.262C179.516 69.7307 179.63 70.136 179.858 70.478C180.098 70.8073 180.434 71.0607 180.865 71.238C181.295 71.4153 181.808 71.504 182.404 71.504ZM222.076 75V62.878C222.076 61.5227 221.753 60.4713 221.107 59.724C220.474 58.964 219.593 58.584 218.466 58.584C217.744 58.584 217.117 58.755 216.585 59.097C216.053 59.4263 215.635 59.895 215.331 60.503C215.04 61.0983 214.894 61.7887 214.894 62.574L212.728 61.13C212.728 59.724 213.057 58.4827 213.716 57.406C214.387 56.3293 215.28 55.4933 216.395 54.898C217.522 54.29 218.77 53.986 220.138 53.986C222.481 53.986 224.248 54.6827 225.439 56.076C226.642 57.4567 227.244 59.268 227.244 61.51V75H222.076ZM197.338 75V54.48H201.898V61.282H202.544V75H197.338ZM209.726 75V62.878C209.726 61.5227 209.403 60.4713 208.757 59.724C208.124 58.964 207.243 58.584 206.116 58.584C205.039 58.584 204.172 58.9577 203.513 59.705C202.867 60.4397 202.544 61.396 202.544 62.574L200.378 61.054C200.378 59.7113 200.714 58.508 201.385 57.444C202.056 56.38 202.956 55.5377 204.083 54.917C205.223 54.2963 206.496 53.986 207.902 53.986C209.511 53.986 210.828 54.328 211.854 55.012C212.893 55.696 213.659 56.608 214.153 57.748C214.647 58.888 214.894 60.142 214.894 61.51V75H209.726ZM232.184 51.63V47.07H237.352V51.63H232.184ZM232.184 75V54.48H237.352V75H232.184ZM256.653 75V65.31C256.653 64.8413 256.627 64.246 256.577 63.524C256.526 62.7893 256.368 62.0547 256.102 61.32C255.836 60.5853 255.399 59.971 254.791 59.477C254.195 58.983 253.347 58.736 252.245 58.736C251.801 58.736 251.326 58.8057 250.82 58.945C250.313 59.0843 249.838 59.3567 249.395 59.762C248.951 60.1547 248.584 60.7373 248.293 61.51C248.014 62.2827 247.875 63.3087 247.875 64.588L244.911 63.182C244.911 61.5607 245.24 60.0407 245.899 58.622C246.557 57.2033 247.545 56.057 248.863 55.183C250.193 54.309 251.865 53.872 253.879 53.872C255.487 53.872 256.798 54.1443 257.812 54.689C258.825 55.2337 259.61 55.924 260.168 56.76C260.738 57.596 261.143 58.47 261.384 59.382C261.624 60.2813 261.77 61.1047 261.821 61.852C261.871 62.5993 261.897 63.144 261.897 63.486V75H256.653ZM242.631 75V54.48H247.229V61.282H247.875V75H242.631ZM275.225 84.69C274.059 84.69 272.951 84.5 271.9 84.12C270.848 83.7527 269.905 83.2333 269.069 82.562C268.245 81.9033 267.574 81.1307 267.055 80.244L271.843 77.926C272.172 78.534 272.641 78.9963 273.249 79.313C273.869 79.6297 274.541 79.788 275.263 79.788C276.035 79.788 276.764 79.655 277.448 79.389C278.132 79.1357 278.676 78.7493 279.082 78.23C279.5 77.7233 279.696 77.09 279.671 76.33V70.364H280.317V54.48H284.839V76.406C284.839 76.9127 284.813 77.3877 284.763 77.831C284.725 78.287 284.649 78.7367 284.535 79.18C284.205 80.434 283.591 81.4663 282.692 82.277C281.805 83.0877 280.716 83.6893 279.424 84.082C278.132 84.4873 276.732 84.69 275.225 84.69ZM274.769 75.57C272.881 75.57 271.228 75.095 269.81 74.145C268.391 73.195 267.283 71.903 266.485 70.269C265.699 68.635 265.307 66.792 265.307 64.74C265.307 62.65 265.706 60.7943 266.504 59.173C267.314 57.539 268.448 56.2533 269.905 55.316C271.361 54.3787 273.071 53.91 275.035 53.91C276.985 53.91 278.626 54.385 279.956 55.335C281.286 56.285 282.293 57.577 282.977 59.211C283.661 60.845 284.003 62.688 284.003 64.74C284.003 66.792 283.654 68.635 282.958 70.269C282.274 71.903 281.248 73.195 279.88 74.145C278.512 75.095 276.808 75.57 274.769 75.57ZM275.605 70.972C276.757 70.972 277.676 70.7123 278.36 70.193C279.056 69.6737 279.557 68.9453 279.861 68.008C280.165 67.0707 280.317 65.9813 280.317 64.74C280.317 63.4987 280.165 62.4093 279.861 61.472C279.557 60.5347 279.069 59.8063 278.398 59.287C277.739 58.7677 276.871 58.508 275.795 58.508C274.642 58.508 273.692 58.793 272.945 59.363C272.21 59.9203 271.665 60.674 271.311 61.624C270.956 62.5613 270.779 63.6 270.779 64.74C270.779 65.8927 270.95 66.944 271.292 67.894C271.634 68.8313 272.159 69.5787 272.869 70.136C273.578 70.6933 274.49 70.972 275.605 70.972ZM41.04 119V91.64H46.208V114.174H57.988V119H41.04ZM66.5386 119.57C65.0693 119.57 63.8216 119.291 62.7956 118.734C61.7823 118.164 61.0096 117.41 60.4776 116.473C59.9583 115.523 59.6986 114.478 59.6986 113.338C59.6986 112.388 59.8443 111.52 60.1356 110.735C60.4269 109.95 60.8956 109.259 61.5416 108.664C62.2003 108.056 63.0806 107.549 64.1826 107.144C64.9426 106.865 65.8483 106.618 66.8996 106.403C67.9509 106.188 69.1416 105.985 70.4716 105.795C71.8016 105.592 73.2646 105.371 74.8606 105.13L72.9986 106.156C72.9986 104.94 72.7073 104.047 72.1246 103.477C71.5419 102.907 70.5666 102.622 69.1986 102.622C68.4386 102.622 67.6469 102.806 66.8236 103.173C66.0003 103.54 65.4239 104.193 65.0946 105.13L60.4206 103.648C60.9399 101.951 61.9153 100.57 63.3466 99.506C64.7779 98.442 66.7286 97.91 69.1986 97.91C71.0099 97.91 72.6186 98.1887 74.0246 98.746C75.4306 99.3033 76.4946 100.266 77.2166 101.634C77.6219 102.394 77.8626 103.154 77.9386 103.914C78.0146 104.674 78.0526 105.523 78.0526 106.46V119H73.5306V114.782L74.1766 115.656C73.1759 117.037 72.0929 118.037 70.9276 118.658C69.7749 119.266 68.3119 119.57 66.5386 119.57ZM67.6406 115.504C68.5906 115.504 69.3886 115.339 70.0346 115.01C70.6933 114.668 71.2126 114.282 71.5926 113.851C71.9853 113.42 72.2513 113.059 72.3906 112.768C72.6566 112.211 72.8086 111.565 72.8466 110.83C72.8973 110.083 72.9226 109.462 72.9226 108.968L74.4426 109.348C72.9099 109.601 71.6686 109.817 70.7186 109.994C69.7686 110.159 69.0023 110.311 68.4196 110.45C67.8369 110.589 67.3239 110.741 66.8806 110.906C66.3739 111.109 65.9623 111.33 65.6456 111.571C65.3416 111.799 65.1136 112.052 64.9616 112.331C64.8223 112.61 64.7526 112.92 64.7526 113.262C64.7526 113.731 64.8666 114.136 65.0946 114.478C65.3353 114.807 65.6709 115.061 66.1016 115.238C66.5323 115.415 67.0453 115.504 67.6406 115.504ZM90.2509 119.608C88.6422 119.608 87.3312 119.336 86.3179 118.791C85.3046 118.246 84.5129 117.556 83.9429 116.72C83.3856 115.884 82.9866 115.016 82.7459 114.117C82.5052 113.205 82.3596 112.375 82.3089 111.628C82.2582 110.881 82.2329 110.336 82.2329 109.994V98.48H87.4769V108.17C87.4769 108.639 87.5022 109.24 87.5529 109.975C87.6036 110.697 87.7619 111.425 88.0279 112.16C88.2939 112.895 88.7246 113.509 89.3199 114.003C89.9279 114.497 90.7829 114.744 91.8849 114.744C92.3282 114.744 92.8032 114.674 93.3099 114.535C93.8166 114.396 94.2916 114.13 94.7349 113.737C95.1782 113.332 95.5392 112.743 95.8179 111.97C96.1092 111.185 96.2549 110.159 96.2549 108.892L99.2189 110.298C99.2189 111.919 98.8896 113.439 98.2309 114.858C97.5722 116.277 96.5779 117.423 95.2479 118.297C93.9306 119.171 92.2649 119.608 90.2509 119.608ZM96.9009 119V112.198H96.2549V98.48H101.461V119H96.9009ZM120.375 119V109.31C120.375 108.841 120.35 108.246 120.299 107.524C120.248 106.789 120.09 106.055 119.824 105.32C119.558 104.585 119.121 103.971 118.513 103.477C117.918 102.983 117.069 102.736 115.967 102.736C115.524 102.736 115.049 102.806 114.542 102.945C114.035 103.084 113.56 103.357 113.117 103.762C112.674 104.155 112.306 104.737 112.015 105.51C111.736 106.283 111.597 107.309 111.597 108.588L108.633 107.182C108.633 105.561 108.962 104.041 109.621 102.622C110.28 101.203 111.268 100.057 112.585 99.183C113.915 98.309 115.587 97.872 117.601 97.872C119.21 97.872 120.521 98.1443 121.534 98.689C122.547 99.2337 123.333 99.924 123.89 100.76C124.46 101.596 124.865 102.47 125.106 103.382C125.347 104.281 125.492 105.105 125.543 105.852C125.594 106.599 125.619 107.144 125.619 107.486V119H120.375ZM106.353 119V98.48H110.951V105.282H111.597V119H106.353ZM138.842 119.57C136.714 119.57 134.89 119.095 133.37 118.145C131.85 117.195 130.685 115.903 129.874 114.269C129.064 112.635 128.658 110.792 128.658 108.74C128.658 106.663 129.076 104.807 129.912 103.173C130.761 101.539 131.952 100.253 133.484 99.316C135.017 98.3787 136.828 97.91 138.918 97.91C141.338 97.91 143.364 98.5243 144.998 99.753C146.645 100.969 147.696 102.635 148.152 104.75L142.984 106.118C142.68 105.054 142.148 104.224 141.388 103.629C140.641 103.034 139.792 102.736 138.842 102.736C137.753 102.736 136.86 103.002 136.163 103.534C135.467 104.053 134.954 104.769 134.624 105.681C134.295 106.58 134.13 107.6 134.13 108.74C134.13 110.526 134.523 111.976 135.308 113.091C136.106 114.193 137.284 114.744 138.842 114.744C140.008 114.744 140.894 114.478 141.502 113.946C142.11 113.414 142.566 112.654 142.87 111.666L148.152 112.768C147.57 114.947 146.468 116.625 144.846 117.803C143.225 118.981 141.224 119.57 138.842 119.57ZM165.556 119V109.31C165.556 108.841 165.531 108.246 165.48 107.524C165.43 106.789 165.271 106.055 165.005 105.32C164.739 104.585 164.302 103.971 163.694 103.477C163.099 102.983 162.25 102.736 161.148 102.736C160.705 102.736 160.23 102.806 159.723 102.945C159.217 103.084 158.742 103.357 158.298 103.762C157.855 104.155 157.488 104.737 157.196 105.51C156.918 106.283 156.778 107.309 156.778 108.588L153.814 107.182C153.814 105.561 154.144 104.041 154.802 102.622C155.461 101.203 156.449 100.057 157.766 99.183C159.096 98.309 160.768 97.872 162.782 97.872C164.391 97.872 165.702 98.1443 166.715 98.689C167.729 99.2337 168.514 99.924 169.072 100.76C169.641 101.596 170.047 102.47 170.287 103.382C170.528 104.281 170.674 105.105 170.724 105.852C170.775 106.599 170.8 107.144 170.8 107.486V119H165.556ZM151.534 119V91.64H156.132V105.7H156.778V119H151.534ZM184.889 119.57C182.786 119.57 180.93 119.12 179.322 118.221C177.726 117.309 176.472 116.061 175.56 114.478C174.66 112.882 174.211 111.058 174.211 109.006C174.211 106.764 174.654 104.813 175.541 103.154C176.427 101.495 177.65 100.209 179.208 99.297C180.766 98.3723 182.558 97.91 184.585 97.91C186.738 97.91 188.568 98.4167 190.076 99.43C191.583 100.443 192.698 101.868 193.42 103.705C194.142 105.542 194.395 107.701 194.18 110.184H189.069V108.284C189.069 106.194 188.733 104.693 188.062 103.781C187.403 102.856 186.32 102.394 184.813 102.394C183.052 102.394 181.754 102.932 180.918 104.009C180.094 105.073 179.683 106.65 179.683 108.74C179.683 110.653 180.094 112.135 180.918 113.186C181.754 114.225 182.976 114.744 184.585 114.744C185.598 114.744 186.466 114.522 187.188 114.079C187.91 113.636 188.461 112.996 188.841 112.16L194.009 113.642C193.236 115.517 192.014 116.973 190.342 118.012C188.682 119.051 186.865 119.57 184.889 119.57ZM178.087 110.184V106.346H191.691V110.184H178.087ZM198.09 119V98.48H202.65V103.496L202.156 102.85C202.422 102.141 202.777 101.495 203.22 100.912C203.663 100.329 204.208 99.848 204.854 99.468C205.348 99.164 205.886 98.9297 206.469 98.765C207.052 98.5877 207.653 98.48 208.274 98.442C208.895 98.3913 209.515 98.404 210.136 98.48V103.306C209.566 103.129 208.901 103.072 208.141 103.135C207.394 103.186 206.716 103.357 206.108 103.648C205.5 103.927 204.987 104.3 204.569 104.769C204.151 105.225 203.834 105.77 203.619 106.403C203.404 107.024 203.296 107.727 203.296 108.512V119H198.09ZM219.077 123.56V115.01C220.167 115.01 220.939 114.63 221.395 113.87C221.864 113.11 222.231 111.755 222.497 109.804C222.649 108.677 222.776 107.492 222.877 106.251C222.991 105.01 223.086 103.737 223.162 102.432C223.238 101.127 223.308 99.81 223.371 98.48H239.217V115.01H241.307V123.56H236.443V119H223.941V123.56H219.077ZM225.689 115.01H234.049V102.47H227.855C227.817 103.167 227.773 103.863 227.722 104.56C227.684 105.257 227.634 105.947 227.57 106.631C227.52 107.315 227.469 107.98 227.418 108.626C227.368 109.259 227.311 109.867 227.247 110.45C227.133 111.565 226.975 112.47 226.772 113.167C226.57 113.864 226.209 114.478 225.689 115.01ZM242.81 119V114.706C243.557 114.845 244.133 114.839 244.539 114.687C244.944 114.522 245.248 114.206 245.451 113.737C245.666 113.256 245.85 112.603 246.002 111.78C246.204 110.691 246.382 109.418 246.534 107.961C246.698 106.504 246.838 104.965 246.952 103.344C247.066 101.71 247.167 100.089 247.256 98.48H262.76V119H257.592V103.306H251.778C251.727 103.965 251.657 104.75 251.569 105.662C251.493 106.574 251.404 107.524 251.303 108.512C251.214 109.487 251.113 110.425 250.999 111.324C250.885 112.211 250.764 112.971 250.638 113.604C250.334 115.213 249.884 116.479 249.289 117.404C248.693 118.329 247.876 118.918 246.838 119.171C245.799 119.437 244.456 119.38 242.81 119ZM279.793 119V112.464H276.487C276.056 112.464 275.467 112.458 274.72 112.445C273.985 112.42 273.295 112.35 272.649 112.236C271.015 111.945 269.672 111.235 268.621 110.108C267.582 108.981 267.063 107.448 267.063 105.51C267.063 103.623 267.563 102.103 268.564 100.95C269.564 99.7973 270.901 99.0627 272.573 98.746C273.257 98.6067 273.96 98.5307 274.682 98.518C275.416 98.4927 276.018 98.48 276.487 98.48H284.961V119H279.793ZM266.569 119L271.205 111.4H276.525L271.965 119H266.569ZM275.917 108.474H279.793V102.47H275.917C275.689 102.47 275.435 102.483 275.157 102.508C274.891 102.533 274.612 102.584 274.321 102.66C273.966 102.761 273.637 102.951 273.333 103.23C273.029 103.496 272.782 103.825 272.592 104.218C272.402 104.598 272.307 105.016 272.307 105.472C272.307 106.194 272.522 106.808 272.953 107.315C273.383 107.809 273.865 108.132 274.397 108.284C274.663 108.36 274.929 108.411 275.195 108.436C275.473 108.461 275.714 108.474 275.917 108.474ZM297.118 119V91.64H308.67C308.936 91.64 309.291 91.6527 309.734 91.678C310.19 91.6907 310.596 91.7287 310.95 91.792C312.584 92.0453 313.921 92.5837 314.959 93.407C316.011 94.2303 316.783 95.269 317.277 96.523C317.771 97.7643 318.018 99.1513 318.018 100.684C318.018 102.217 317.765 103.61 317.258 104.864C316.764 106.105 315.992 107.138 314.94 107.961C313.902 108.784 312.572 109.323 310.95 109.576C310.596 109.627 310.19 109.665 309.734 109.69C309.278 109.715 308.924 109.728 308.67 109.728H302.286V119H297.118ZM302.286 104.902H308.442C308.708 104.902 309 104.889 309.316 104.864C309.633 104.839 309.924 104.788 310.19 104.712C310.887 104.522 311.425 104.205 311.805 103.762C312.185 103.306 312.445 102.806 312.584 102.261C312.736 101.704 312.812 101.178 312.812 100.684C312.812 100.19 312.736 99.6707 312.584 99.126C312.445 98.5687 312.185 98.0683 311.805 97.625C311.425 97.169 310.887 96.846 310.19 96.656C309.924 96.58 309.633 96.5293 309.316 96.504C309 96.4787 308.708 96.466 308.442 96.466H302.286V104.902ZM333.195 119.57C330.459 119.57 328.097 118.975 326.108 117.784C324.132 116.593 322.606 114.928 321.529 112.787C320.465 110.646 319.933 108.157 319.933 105.32C319.933 102.483 320.465 99.9937 321.529 97.853C322.606 95.7123 324.132 94.0467 326.108 92.856C328.097 91.6653 330.459 91.07 333.195 91.07C336.337 91.07 338.971 91.849 341.099 93.407C343.24 94.965 344.747 97.074 345.621 99.734L340.415 101.178C339.909 99.5187 339.054 98.233 337.85 97.321C336.647 96.3963 335.095 95.934 333.195 95.934C331.46 95.934 330.01 96.3203 328.844 97.093C327.692 97.8657 326.824 98.955 326.241 100.361C325.659 101.767 325.367 103.42 325.367 105.32C325.367 107.22 325.659 108.873 326.241 110.279C326.824 111.685 327.692 112.774 328.844 113.547C330.01 114.32 331.46 114.706 333.195 114.706C335.095 114.706 336.647 114.244 337.85 113.319C339.054 112.394 339.909 111.109 340.415 109.462L345.621 110.906C344.747 113.566 343.24 115.675 341.099 117.233C338.971 118.791 336.337 119.57 333.195 119.57Z" fill="white"/>
<path d="M171.842 430.685H200.135L204.369 473.303H167.631L171.842 430.685Z" fill="url(#paint0_linear_922_653)"/>
<rect x="143.479" y="468.895" width="85.0414" height="4.40886" rx="0.821912" fill="url(#paint1_linear_922_653)"/>
<g filter="url(#filter0_d_922_653)">
<path d="M56 242.931C56 240.208 58.2079 238 60.9315 238H311.069C313.792 238 316 240.208 316 242.931V434.859C316 437.583 313.792 439.791 311.069 439.791H60.9315C58.2079 439.791 56 437.583 56 434.859V242.931Z" fill="url(#paint2_linear_922_653)"/>
</g>
<rect x="60.9715" y="242.681" width="250.057" height="177.372" rx="0.924651" fill="#A9A9A9" stroke="#E6E6E6" stroke-width="0.205478"/>
<path d="M311 420.227H311.227V420V245.726C311.227 244.095 309.905 242.773 308.274 242.773L63.7258 242.773C62.0949 242.773 60.7728 244.095 60.7728 245.726L60.7728 420V420.227H61H311Z" fill="#79109D" stroke="#444444" stroke-width="0.454302"/>
<g clip-path="url(#clip0_922_653)">
<rect x="61" y="243" width="250" height="177" rx="2" fill="#18181B"/>
<g opacity="0.6" filter="url(#filter1_f_922_653)">
<path d="M249.905 220.491C236.209 191.825 296.858 228.107 306.897 220.491L364.343 190.224L396.222 265.553L349.779 364.001L291.138 466.957C252.938 454.968 173.363 430.241 160.664 427.246C144.791 423.503 197.983 421.156 199.962 400.197C203.992 357.513 163.129 352.25 177.689 307.336C188.182 274.971 288.083 300.393 249.905 220.491Z" fill="url(#paint3_diamond_922_653)"/>
</g>
</g>
<g filter="url(#filter2_d_922_653)">
<path d="M215.468 316.773C212.331 316.773 209.789 319.315 209.789 322.452V472.876C209.789 476.012 212.331 478.554 215.468 478.554H432.533C435.669 478.554 438.212 476.012 438.212 472.876V322.452C438.212 319.315 435.669 316.773 432.533 316.773H215.468Z" fill="url(#paint4_linear_922_653)"/>
<path d="M215.468 316.773C212.331 316.773 209.789 319.315 209.789 322.452V472.876C209.789 476.012 212.331 478.554 215.468 478.554H432.533C435.669 478.554 438.212 476.012 438.212 472.876V322.452C438.212 319.315 435.669 316.773 432.533 316.773H215.468Z" fill="url(#paint5_linear_922_653)"/>
<path d="M215.468 316.773C212.331 316.773 209.789 319.315 209.789 322.452V472.876C209.789 476.012 212.331 478.554 215.468 478.554H432.533C435.669 478.554 438.212 476.012 438.212 472.876V322.452C438.212 319.315 435.669 316.773 432.533 316.773H215.468Z" stroke="#333333" stroke-width="0.454302"/>
<path d="M433.535 467.706H433.762V467.479V323.683C433.762 322.052 432.44 320.73 430.809 320.73H217.191C215.56 320.73 214.238 322.052 214.238 323.683V467.479V467.706H214.465H433.535Z" fill="#79109D" stroke="#444444" stroke-width="0.454302"/>
<g clip-path="url(#clip1_922_653)">
<rect x="214" y="320" width="220" height="148" rx="4" fill="#18181B"/>
<g opacity="0.6" filter="url(#filter3_f_922_653)">
<path d="M370.888 301.306C359.512 277.498 409.882 307.63 418.22 301.306L465.929 276.168L492.405 338.73L453.834 420.492L405.132 505.998C373.406 496.041 307.319 475.505 296.772 473.017C283.589 469.908 327.766 467.96 329.409 450.553C332.756 415.103 298.819 410.732 310.911 373.431C319.626 346.551 402.594 367.665 370.888 301.306Z" fill="url(#paint6_diamond_922_653)"/>
</g>
</g>
<path d="M174 476.154L474 476.154V481.544C474 482.738 473.224 483.793 472.079 484.13C470.583 484.569 468.5 485.158 466.902 485.518C463.769 486.225 451.295 486.887 451.295 486.887L198.987 486.887C198.737 486.887 198.495 486.889 198.245 486.891C196.261 486.907 186.687 486.904 180.492 485.51C179.08 485.192 177.257 484.67 175.902 484.265C174.766 483.925 174 482.874 174 481.688V476.154Z" fill="url(#paint7_linear_922_653)"/>
<path d="M174 476.154L474 476.154V481.544C474 482.738 473.224 483.793 472.079 484.13C470.583 484.569 468.5 485.158 466.902 485.518C463.769 486.225 451.295 486.887 451.295 486.887L198.987 486.887C198.737 486.887 198.495 486.889 198.245 486.891C196.261 486.907 186.687 486.904 180.492 485.51C179.08 485.192 177.257 484.67 175.902 484.265C174.766 483.925 174 482.874 174 481.688V476.154Z" fill="url(#paint8_linear_922_653)" fill-opacity="0.3"/>
<path d="M301.373 476.74H346.627C346.627 479.55 344.35 481.827 341.54 481.827H306.46C303.65 481.827 301.373 479.55 301.373 476.74Z" fill="#C4C4C4"/>
<path d="M301.373 476.74H346.627C346.627 479.55 344.35 481.827 341.54 481.827H306.46C303.65 481.827 301.373 479.55 301.373 476.74Z" fill="url(#paint9_linear_922_653)"/>
<path d="M301.373 476.74H346.627C346.627 479.55 344.35 481.827 341.54 481.827H306.46C303.65 481.827 301.373 479.55 301.373 476.74Z" fill="url(#paint10_linear_922_653)"/>
</g>
<defs>
<filter id="filter0_d_922_653" x="38.6868" y="238" width="329.253" height="271.044" filterUnits="userSpaceOnUse" color-interpolation-filters="sRGB">
<feFlood flood-opacity="0" result="BackgroundImageFix"/>
<feColorMatrix in="SourceAlpha" type="matrix" values="0 0 0 0 0 0 0 0 0 0 0 0 0 0 0 0 0 0 127 0" result="hardAlpha"/>
<feOffset dx="17.3132" dy="34.6263"/>
<feGaussianBlur stdDeviation="17.3132"/>
<feColorMatrix type="matrix" values="0 0 0 0 0 0 0 0 0 0 0 0 0 0 0 0 0 0 0.23 0"/>
<feBlend mode="normal" in2="BackgroundImageFix" result="effect1_dropShadow_922_653"/>
<feBlend mode="normal" in="SourceGraphic" in2="effect1_dropShadow_922_653" result="shape"/>
</filter>
<filter id="filter1_f_922_653" x="116.571" y="149.084" width="320.79" height="359.012" filterUnits="userSpaceOnUse" color-interpolation-filters="sRGB">
<feFlood flood-opacity="0" result="BackgroundImageFix"/>
<feBlend mode="normal" in="SourceGraphic" in2="BackgroundImageFix" result="shape"/>
<feGaussianBlur stdDeviation="20.5697" result="effect1_foregroundBlur_922_653"/>
</filter>
<filter id="filter2_d_922_653" x="159" y="301.546" width="370" height="240.348" filterUnits="userSpaceOnUse" color-interpolation-filters="sRGB">
<feFlood flood-opacity="0" result="BackgroundImageFix"/>
<feColorMatrix in="SourceAlpha" type="matrix" values="0 0 0 0 0 0 0 0 0 0 0 0 0 0 0 0 0 0 127 0" result="hardAlpha"/>
<feOffset dx="20" dy="20"/>
<feGaussianBlur stdDeviation="17.5"/>
<feComposite in2="hardAlpha" operator="out"/>
<feColorMatrix type="matrix" values="0 0 0 0 0 0 0 0 0 0 0 0 0 0 0 0 0 0 0.35 0"/>
<feBlend mode="normal" in2="BackgroundImageFix" result="effect1_dropShadow_922_653"/>
<feBlend mode="normal" in="SourceGraphic" in2="effect1_dropShadow_922_653" result="shape"/>
</filter>
<filter id="filter3_f_922_653" x="260.153" y="242.001" width="266.419" height="298.163" filterUnits="userSpaceOnUse" color-interpolation-filters="sRGB">
<feFlood flood-opacity="0" result="BackgroundImageFix"/>
<feBlend mode="normal" in="SourceGraphic" in2="BackgroundImageFix" result="shape"/>
<feGaussianBlur stdDeviation="17.0833" result="effect1_foregroundBlur_922_653"/>
</filter>
<linearGradient id="paint0_linear_922_653" x1="186" y1="430.685" x2="186" y2="473.303" gradientUnits="userSpaceOnUse">
<stop stop-color="#F1F1F1"/>
<stop offset="0.296875" stop-color="#F8F8F8"/>
<stop offset="0.645833" stop-color="white"/>
<stop offset="1" stop-color="#F1F1F1"/>
</linearGradient>
<linearGradient id="paint1_linear_922_653" x1="143.479" y1="469.907" x2="146.209" y2="486.225" gradientUnits="userSpaceOnUse">
<stop stop-color="#F1F1F1"/>
<stop offset="0.484375" stop-color="white"/>
<stop offset="1" stop-color="#FAFAFA"/>
</linearGradient>
<linearGradient id="paint2_linear_922_653" x1="56" y1="284.357" x2="320.434" y2="389.965" gradientUnits="userSpaceOnUse">
<stop stop-color="#DDDCDC"/>
<stop offset="0.484375" stop-color="#EEEEEE"/>
<stop offset="1" stop-color="#EAEAEA"/>
</linearGradient>
<radialGradient id="paint3_diamond_922_653" cx="0" cy="0" r="1" gradientUnits="userSpaceOnUse" gradientTransform="translate(265.772 325.497) rotate(-44.949) scale(146.094 423.204)">
<stop stop-color="#FF00B8"/>
<stop offset="0.234375" stop-color="#F63333"/>
<stop offset="0.510417" stop-color="#6279EE"/>
<stop offset="0.723958" stop-color="#3BDBD1"/>
<stop offset="0.864583" stop-color="#EA1EEE"/>
<stop offset="1" stop-color="#8C2F72"/>
</radialGradient>
<linearGradient id="paint4_linear_922_653" x1="210.016" y1="317" x2="441.511" y2="473.098" gradientUnits="userSpaceOnUse">
<stop stop-color="#333333"/>
<stop offset="0.53125" stop-color="#596368"/>
<stop offset="1" stop-color="#333333"/>
</linearGradient>
<linearGradient id="paint5_linear_922_653" x1="324" y1="317" x2="324" y2="482.815" gradientUnits="userSpaceOnUse">
<stop offset="0.6875" stop-opacity="0.4"/>
<stop offset="0.883584" stop-color="#333333" stop-opacity="0.643"/>
<stop offset="1" stop-opacity="0.94"/>
</linearGradient>
<radialGradient id="paint6_diamond_922_653" cx="0" cy="0" r="1" gradientUnits="userSpaceOnUse" gradientTransform="translate(384.065 388.514) rotate(-44.949) scale(121.332 351.475)">
<stop stop-color="#FF00B8"/>
<stop offset="0.234375" stop-color="#F63333"/>
<stop offset="0.510417" stop-color="#6279EE"/>
<stop offset="0.723958" stop-color="#3BDBD1"/>
<stop offset="0.864583" stop-color="#EA1EEE"/>
<stop offset="1" stop-color="#8C2F72"/>
</radialGradient>
<linearGradient id="paint7_linear_922_653" x1="474" y1="476.154" x2="174" y2="476.154" gradientUnits="userSpaceOnUse">
<stop stop-color="#212121"/>
<stop offset="0.5" stop-color="#555555"/>
<stop offset="1" stop-color="#212121"/>
</linearGradient>
<linearGradient id="paint8_linear_922_653" x1="324" y1="476.154" x2="324" y2="486.894" gradientUnits="userSpaceOnUse">
<stop stop-color="#666666"/>
<stop offset="0.5" stop-color="#666666"/>
<stop offset="0.541667" stop-opacity="0.5"/>
<stop offset="1"/>
</linearGradient>
<linearGradient id="paint9_linear_922_653" x1="324" y1="476.74" x2="324" y2="481.827" gradientUnits="userSpaceOnUse">
<stop stop-color="#999999"/>
<stop offset="0.151042" stop-color="#777777"/>
<stop offset="0.609375" stop-color="#444444"/>
<stop offset="0.822917" stop-color="#333333"/>
<stop offset="1" stop-color="#222222"/>
</linearGradient>
<linearGradient id="paint10_linear_922_653" x1="301.373" y1="476.74" x2="346.627" y2="476.74" gradientUnits="userSpaceOnUse">
<stop stop-color="#333333"/>
<stop offset="0.130208" stop-color="#333333" stop-opacity="0.42"/>
<stop offset="0.932292" stop-color="#333333" stop-opacity="0.118947"/>
<stop offset="1" stop-color="#333333" stop-opacity="0.83"/>
</linearGradient>
<clipPath id="clip0_922_653">
<rect x="61" y="243" width="250" height="177" rx="2" fill="white"/>
</clipPath>
<clipPath id="clip1_922_653">
<rect x="214" y="320" width="220" height="148" rx="4" fill="white"/>
</clipPath>
</defs>
</svg>
