<svg width="37" height="38" viewBox="0 0 37 38" fill="none" xmlns="http://www.w3.org/2000/svg">
<path opacity="0.1" fill-rule="evenodd" clip-rule="evenodd" d="M18.5 36.5C28.165 36.5 36 28.665 36 19C36 9.33502 28.165 1.5 18.5 1.5C8.83502 1.5 1 9.33502 1 19C1 28.665 8.83502 36.5 18.5 36.5Z" stroke="white" stroke-width="1.5"/>
<path d="M25.9997 14.9043C24.8249 14.9043 23.6983 14.4402 22.8676 13.6143C22.037 12.7883 21.5703 11.6681 21.5703 10.5H18.4057V22.8214C18.4051 23.3832 18.2268 23.9305 17.8958 24.3858C17.5649 24.8412 17.0983 25.1814 16.562 25.3583C16.0258 25.5352 15.4472 25.5397 14.9081 25.3714C14.3691 25.203 13.8971 24.8703 13.5589 24.4202C13.2207 23.9702 13.0336 23.4258 13.024 22.8641C13.0144 22.3024 13.1828 21.752 13.5054 21.2908C13.828 20.8296 14.2884 20.4811 14.8213 20.2946C15.3543 20.1081 15.9327 20.0932 16.4747 20.2518V17.1931C15.3229 17.0386 14.1511 17.2373 13.1159 17.7625C12.0806 18.2876 11.2311 19.1143 10.6808 20.1322C10.1305 21.1501 9.90561 22.3106 10.0361 23.4589C10.1667 24.6072 10.6464 25.6886 11.4114 26.5586C12.1763 27.4287 13.1899 28.046 14.317 28.3281C15.444 28.6103 16.6308 28.5438 17.7189 28.1377C18.807 27.7315 19.7445 27.005 20.4064 26.055C21.0682 25.1051 21.4229 23.977 21.4229 22.8214L21.5153 16.5933C22.8155 17.5424 24.387 18.0531 26 18.0507L25.9997 14.9043Z" fill="white"/>
</svg>
